<?xml version="1.0" encoding="utf-8"?>
<!-- Generator: Adobe Illustrator 24.1.1, SVG Export Plug-In . SVG Version: 6.00 Build 0)  -->
<svg version="1.1" id="Ebene_1" xmlns="http://www.w3.org/2000/svg" xmlns:xlink="http://www.w3.org/1999/xlink" x="0px" y="0px"
	 viewBox="0 0 168.8 30" style="enable-background:new 0 0 168.8 30;" xml:space="preserve">
<style type="text/css">
	.st0{enable-background:new    ;}
	.st1{fill:#FFFFFF;}
</style>
<g id="Logo" transform="translate(-38 -27)">
	<g class="st0">
		<path class="st1" d="M38.1,56.6V36.8h7c0.9,0,1.8,0.2,2.6,0.5c0.8,0.3,1.5,0.7,2.1,1.3c0.6,0.6,1.1,1.2,1.4,2
			c0.4,0.8,0.5,1.6,0.5,2.5c0,0.9-0.2,1.8-0.5,2.6c-0.4,0.8-0.8,1.4-1.4,2c-0.6,0.6-1.3,1-2.1,1.3c-0.8,0.3-1.7,0.5-2.6,0.5h-3.2
			v7.3H38.1z M45.1,45.7c1,0,1.7-0.3,2.2-0.8c0.5-0.6,0.7-1.2,0.7-1.9c0-0.4-0.1-0.7-0.2-1c-0.1-0.3-0.3-0.6-0.6-0.9
			c-0.2-0.2-0.6-0.4-0.9-0.6c-0.4-0.1-0.8-0.2-1.3-0.2h-3.3v5.5H45.1z"/>
		<path class="st1" d="M61.8,55.1h-0.2c-0.4,0.5-0.9,1-1.5,1.3c-0.6,0.4-1.4,0.6-2.3,0.6c-0.7,0-1.4-0.1-2-0.3
			c-0.6-0.2-1.2-0.5-1.6-1c-0.5-0.4-0.8-0.9-1.1-1.5c-0.3-0.6-0.4-1.2-0.4-1.9c0-0.7,0.1-1.3,0.4-1.9c0.3-0.6,0.7-1,1.2-1.5
			c0.5-0.4,1.1-0.7,1.8-0.9c0.7-0.2,1.4-0.3,2.2-0.3c0.9,0,1.6,0.1,2.2,0.2c0.6,0.1,1,0.3,1.4,0.4V48c0-0.7-0.3-1.3-0.9-1.8
			c-0.6-0.5-1.3-0.7-2.1-0.7c-1.3,0-2.3,0.5-3.2,1.6L53,45.3c1.4-1.8,3.4-2.7,5.9-2.7c2.1,0,3.7,0.5,4.8,1.5c1.1,1,1.7,2.4,1.7,4.4
			v8.1h-3.6V55.1z M61.8,51.1c-0.4-0.2-0.9-0.4-1.3-0.5c-0.5-0.1-0.9-0.2-1.5-0.2c-0.9,0-1.5,0.2-2,0.6c-0.5,0.4-0.7,0.8-0.7,1.4
			c0,0.6,0.2,1,0.7,1.3c0.5,0.3,1,0.5,1.6,0.5c0.5,0,0.9-0.1,1.3-0.3c0.4-0.2,0.8-0.4,1-0.7c0.3-0.3,0.5-0.6,0.7-1
			C61.7,51.9,61.8,51.5,61.8,51.1z"/>
		<path class="st1" d="M73.1,51.4c0,0.3,0,0.6,0.1,0.9c0.1,0.3,0.2,0.5,0.4,0.7c0.3,0.3,0.6,0.4,1.1,0.4c0.3,0,0.5,0,0.7-0.1
			c0.2-0.1,0.4-0.1,0.6-0.2l0.2,3.4c-0.4,0.1-0.7,0.2-1,0.3c-0.3,0-0.7,0.1-1.2,0.1c-0.7,0-1.3-0.1-1.8-0.3c-0.5-0.2-1-0.5-1.4-0.9
			c-0.9-0.8-1.3-2-1.3-3.5v-5.9h-2.4V43h2.4v-4.2h3.6V43h5.2v-4.2h3.6V43h3.3v3.1h-3.3v5.3c0,0.3,0,0.6,0.1,0.9
			c0.1,0.3,0.2,0.5,0.4,0.7c0.3,0.3,0.6,0.4,1.1,0.4c0.3,0,0.6,0,0.7-0.1c0.2-0.1,0.4-0.2,0.5-0.3l1,3.2c-0.4,0.2-0.9,0.4-1.4,0.5
			c-0.5,0.1-1,0.2-1.6,0.2c-0.7,0-1.3-0.1-1.8-0.3c-0.5-0.2-1-0.5-1.4-0.9c-0.9-0.8-1.3-2-1.3-3.5v-5.9h-5.2V51.4z"/>
		<path class="st1" d="M100.6,53.3c-0.6,1.1-1.5,2-2.5,2.7c-1.1,0.7-2.4,1-3.9,1c-1,0-2-0.2-2.9-0.5c-0.9-0.4-1.6-0.9-2.3-1.5
			c-0.6-0.6-1.1-1.4-1.5-2.3c-0.4-0.9-0.5-1.8-0.5-2.9c0-1,0.2-1.9,0.5-2.8c0.4-0.9,0.8-1.6,1.5-2.3c0.6-0.7,1.4-1.2,2.2-1.6
			c0.9-0.4,1.8-0.6,2.8-0.6c1.1,0,2.1,0.2,2.9,0.5c0.8,0.4,1.6,0.9,2.1,1.5c0.6,0.6,1,1.4,1.3,2.3c0.3,0.9,0.4,1.8,0.4,2.8
			c0,0.1,0,0.2,0,0.3c0,0.1,0,0.2,0,0.3c0,0.1,0,0.2,0,0.3H90.6c0.1,0.6,0.2,1,0.5,1.4c0.2,0.4,0.5,0.7,0.9,1
			c0.3,0.3,0.7,0.5,1.1,0.6c0.4,0.1,0.8,0.2,1.2,0.2c0.8,0,1.5-0.2,2.1-0.6c0.5-0.4,1-0.9,1.3-1.4L100.6,53.3z M97.3,48
			c0-0.2-0.1-0.5-0.2-0.8c-0.1-0.3-0.3-0.6-0.6-0.8c-0.3-0.3-0.6-0.5-1-0.6c-0.4-0.2-0.9-0.2-1.4-0.2c-0.8,0-1.5,0.2-2,0.7
			c-0.6,0.4-1,1.1-1.2,1.9H97.3z"/>
		<path class="st1" d="M103.2,43h3.4v1.9h0.2c0.2-0.3,0.4-0.6,0.7-0.9c0.3-0.3,0.6-0.5,0.9-0.7c0.3-0.2,0.7-0.4,1.1-0.5
			c0.4-0.1,0.8-0.2,1.2-0.2c0.5,0,0.9,0.1,1.2,0.2c0.3,0.1,0.6,0.2,0.9,0.4l-1,3.2c-0.2-0.1-0.5-0.2-0.7-0.3c-0.3-0.1-0.6-0.1-1-0.1
			c-0.5,0-1,0.1-1.4,0.3c-0.4,0.2-0.8,0.5-1,0.8c-0.3,0.4-0.5,0.8-0.7,1.2s-0.2,1-0.2,1.5v6.7h-3.6V43z"/>
		<path class="st1" d="M117.8,44.8h0.2c0.4-0.7,1-1.2,1.7-1.6c0.7-0.4,1.5-0.6,2.5-0.6c0.8,0,1.6,0.1,2.2,0.4
			c0.6,0.3,1.2,0.7,1.6,1.2c0.4,0.5,0.7,1.1,0.9,1.8c0.2,0.7,0.3,1.5,0.3,2.4v8.2h-3.6v-7.8c0-1-0.2-1.7-0.7-2.2
			c-0.4-0.5-1.1-0.7-1.9-0.7c-0.5,0-0.9,0.1-1.3,0.3c-0.4,0.2-0.7,0.5-1,0.9c-0.3,0.4-0.5,0.8-0.6,1.3c-0.1,0.5-0.2,1-0.2,1.6v6.6
			h-3.6V43h3.4V44.8z"/>
	</g>
	<g class="st0">
		<path class="st1" d="M145.2,51.3c0,1.7-0.6,3.1-1.9,4.2c-1.3,1-2.9,1.5-4.7,1.5c-1.6,0-3.1-0.5-4.3-1.4c-1.3-1-2.1-2.3-2.6-3.9
			l2.4-1c0.2,0.6,0.4,1.1,0.7,1.6c0.3,0.5,0.6,0.9,1,1.2c0.4,0.3,0.8,0.6,1.3,0.8c0.5,0.2,1,0.3,1.5,0.3c1.2,0,2.1-0.3,2.8-0.9
			c0.7-0.6,1.1-1.4,1.1-2.4c0-0.8-0.3-1.5-0.9-2.1c-0.6-0.6-1.6-1.1-3.2-1.7c-1.6-0.6-2.6-1-3-1.2c-2.1-1.1-3.2-2.6-3.2-4.7
			c0-1.5,0.6-2.7,1.7-3.7c1.2-1,2.6-1.5,4.3-1.5c1.5,0,2.8,0.4,3.9,1.2c1.1,0.8,1.8,1.7,2.2,2.8l-2.4,1c-0.2-0.7-0.7-1.4-1.3-1.8
			c-0.7-0.5-1.5-0.7-2.4-0.7c-1,0-1.8,0.3-2.5,0.8c-0.7,0.5-1,1.2-1,2c0,0.7,0.3,1.3,0.8,1.8c0.6,0.5,1.9,1.1,3.8,1.8
			c2,0.7,3.4,1.5,4.3,2.5C144.8,48.6,145.2,49.8,145.2,51.3z"/>
		<path class="st1" d="M152.5,56.8c-1.1,0-2-0.3-2.8-1s-1.1-1.6-1.1-2.8v-7.6h-2.4V43h2.4v-4.2h2.5V43h3.3v2.3h-3.3v6.8
			c0,0.9,0.2,1.5,0.5,1.8c0.4,0.3,0.7,0.5,1.2,0.5c0.2,0,0.4,0,0.6-0.1c0.2,0,0.4-0.1,0.5-0.2l0.8,2.3
			C154.1,56.7,153.4,56.8,152.5,56.8z"/>
		<path class="st1" d="M168.8,56.6h-2.4v-1.9h-0.1c-0.4,0.7-1,1.2-1.8,1.7c-0.8,0.4-1.6,0.7-2.5,0.7c-1.7,0-2.9-0.5-3.8-1.4
			s-1.3-2.3-1.3-4.1V43h2.5v8.4c0.1,2.2,1.2,3.3,3.3,3.3c1,0,1.9-0.4,2.5-1.2c0.7-0.8,1-1.8,1-2.9V43h2.5V56.6z"/>
		<path class="st1" d="M177.4,57c-1.8,0-3.3-0.7-4.6-2.1c-1.3-1.4-1.9-3.1-1.9-5.1s0.6-3.7,1.9-5.1c1.3-1.4,2.8-2.1,4.6-2.1
			c1,0,1.9,0.2,2.7,0.6c0.8,0.4,1.5,1,1.9,1.7h0.1l-0.1-1.9v-6.3h2.5v19.8h-2.4v-1.9h-0.1c-0.4,0.7-1.1,1.3-1.9,1.7
			C179.3,56.8,178.4,57,177.4,57z M177.8,54.7c1.3,0,2.3-0.5,3.1-1.4c0.8-0.9,1.2-2.1,1.2-3.5c0-1.4-0.4-2.6-1.2-3.5
			c-0.8-0.9-1.8-1.4-3.1-1.4c-1.2,0-2.2,0.5-3.1,1.4c-0.8,0.9-1.2,2.1-1.2,3.5c0,1.4,0.4,2.6,1.2,3.5
			C175.6,54.2,176.6,54.7,177.8,54.7z"/>
		<path class="st1" d="M191,38.3c0,0.5-0.2,0.9-0.5,1.3c-0.4,0.4-0.8,0.5-1.3,0.5c-0.5,0-0.9-0.2-1.3-0.5c-0.4-0.4-0.5-0.8-0.5-1.3
			s0.2-0.9,0.5-1.3c0.3-0.4,0.8-0.5,1.3-0.5c0.5,0,0.9,0.2,1.3,0.5C190.8,37.4,191,37.8,191,38.3z M190.5,43v13.6h-2.5V43H190.5z"/>
		<path class="st1" d="M192.9,49.8c0-2.1,0.7-3.8,2-5.2c1.3-1.4,3-2,5-2c2,0,3.7,0.7,5,2c1.3,1.4,2,3.1,2,5.2c0,2.1-0.7,3.8-2,5.2
			c-1.3,1.4-3,2-5,2c-2,0-3.7-0.7-5-2C193.5,53.6,192.9,51.9,192.9,49.8z M195.4,49.8c0,1.5,0.4,2.6,1.3,3.5
			c0.8,0.9,1.9,1.4,3.2,1.4c1.3,0,2.3-0.5,3.2-1.4c0.8-0.9,1.3-2.1,1.3-3.5c0-1.4-0.4-2.6-1.3-3.5c-0.9-0.9-1.9-1.4-3.2-1.4
			c-1.2,0-2.3,0.5-3.2,1.4C195.8,47.2,195.4,48.3,195.4,49.8z"/>
	</g>
	<g class="st0">
		<path class="st1" d="M42.9,33.2l-2.5,0.1l0-0.9l0.9,0l-0.3-1h-1.3l-0.5,2l-1.2,0l0-0.9l0.5,0l1.1-4.3l-0.8,0l0-0.8l2.1,0l1.5,5
			l0.5,0L42.9,33.2z M40.9,30.6l-0.5-1.6L40,30.6L40.9,30.6z"/>
		<path class="st1" d="M47.5,33.3l-1.4,0c0-0.9,0-1.8,0-2.6c0-0.1,0-0.3-0.1-0.3c-0.1-0.1-0.2-0.1-0.4-0.2c-0.1,0-0.3,0-0.4,0.1
			c-0.1,0.1-0.3,0.2-0.4,0.4l0,2.6l-1.4,0v-0.6l0.5,0l0-2.8l-0.6,0l0-0.6l1.5,0v0.6c0.1-0.2,0.3-0.3,0.5-0.3
			c0.2-0.1,0.3-0.1,0.5-0.1c0.2,0,0.4,0,0.6,0.1c0.2,0.1,0.3,0.2,0.4,0.3c0.1,0.1,0.2,0.3,0.3,0.4c0.1,0.1,0.1,0.3,0.1,0.4
			c0,0.7,0,1.4,0,2l0.4,0V33.3z"/>
		<path class="st1" d="M50,33.2h-2l0-0.8l0.6,0l0-2l-0.7,0l0-0.8l1.6,0l0,2.9l0.5,0V33.2z M49.4,28.5c0,0.2,0,0.3-0.2,0.5
			c-0.1,0.1-0.3,0.2-0.4,0.2c-0.2,0-0.3,0-0.5-0.1c-0.1-0.1-0.2-0.2-0.2-0.4c0-0.2,0.1-0.3,0.2-0.5c0.1-0.1,0.3-0.2,0.4-0.2
			c0.2,0,0.3,0.1,0.5,0.2C49.3,28.2,49.4,28.3,49.4,28.5z"/>
		<path class="st1" d="M56.2,33.1l-1.4,0l0-2.5c0-0.2-0.1-0.4-0.2-0.5c-0.1-0.1-0.2-0.1-0.3-0.1c-0.1,0-0.2,0.1-0.3,0.2
			c-0.1,0.1-0.2,0.3-0.2,0.5c0,0.6,0,1.3,0,2h0.6v0.6l-1.7,0c0-1,0-1.9,0-2.9c0-0.1,0-0.2-0.1-0.3c-0.1-0.1-0.2-0.1-0.3-0.1
			c-0.1,0-0.2,0.1-0.3,0.2c-0.1,0.1-0.1,0.3-0.1,0.5c0,0.1,0,0.3,0,0.4c0,0.2,0,0.4,0,0.8c0,0.3,0,0.8,0,1.3l-1.5,0l0-0.8l0.5,0
			l-0.1-2.8l-0.6,0l0-0.6l1.5,0l0,0.6c0.1-0.1,0.2-0.2,0.4-0.3c0.1-0.1,0.3-0.1,0.5-0.1c0.2,0,0.3,0,0.5,0.1
			c0.2,0.1,0.3,0.2,0.3,0.3c0.1-0.2,0.3-0.3,0.4-0.3c0.2-0.1,0.4-0.1,0.5-0.1c0.4,0,0.7,0.1,0.9,0.3c0.2,0.2,0.4,0.6,0.4,1v1.9h0.4
			L56.2,33.1z"/>
		<path class="st1" d="M60.2,33.3l-1.3,0V33c-0.2,0.2-0.4,0.3-0.6,0.3c-0.3,0-0.5,0-0.8-0.1c-0.3-0.1-0.5-0.2-0.6-0.4
			c-0.2-0.2-0.3-0.4-0.3-0.7c0-0.4,0.1-0.7,0.4-1c0.3-0.2,0.6-0.4,1-0.4c0.2,0,0.4,0,0.5,0c0.1,0,0.3,0.1,0.3,0.2
			c0-0.2,0-0.3-0.1-0.5c-0.1-0.1-0.2-0.2-0.4-0.3c-0.2,0-0.3,0-0.5,0c-0.2,0.1-0.4,0.2-0.6,0.4l-0.4-0.6c0.1-0.1,0.2-0.2,0.4-0.3
			c0.2-0.1,0.3-0.2,0.5-0.2c0.2,0,0.4-0.1,0.6,0c0.2,0,0.4,0.1,0.7,0.2c0.2,0.1,0.4,0.3,0.5,0.5c0.1,0.2,0.2,0.4,0.2,0.6
			c0,0.2,0.1,0.5,0.1,0.8c0,0.3,0,0.6,0,1l0.4,0L60.2,33.3z M58.8,32.3l0-0.6c-0.1,0-0.2-0.1-0.3-0.1c-0.1,0-0.2-0.1-0.3-0.1
			c-0.2,0-0.4,0.1-0.5,0.2c-0.1,0.1-0.2,0.2-0.2,0.4c0,0.1,0,0.2,0.1,0.3c0.1,0.1,0.2,0.2,0.3,0.2c0.1,0,0.3,0,0.4,0
			C58.6,32.5,58.7,32.5,58.8,32.3z"/>
		<path class="st1" d="M62.7,33.2l-1.9,0l0-0.9l0.5,0l0-4.7l-0.6,0l0-0.7l1.6,0l0,5.4l0.5,0L62.7,33.2z"/>
		<path class="st1" d="M69.7,27.4l-0.6,1.5c-0.2-0.1-0.4-0.3-0.6-0.3c-0.2-0.1-0.5-0.1-0.8-0.1c-0.2,0-0.4,0.1-0.6,0.2
			c-0.2,0.1-0.4,0.3-0.5,0.5c-0.1,0.2-0.2,0.4-0.3,0.7c-0.1,0.3-0.1,0.6-0.1,0.9c0,0.3,0.1,0.6,0.2,0.8c0.1,0.2,0.3,0.4,0.4,0.5
			c0.2,0.1,0.3,0.2,0.5,0.2c0.2,0,0.3,0.1,0.5,0.1c0.3,0,0.5,0,0.8-0.1c0.3-0.1,0.5-0.2,0.7-0.4l0.4,0.8c-0.2,0.2-0.5,0.4-0.8,0.5
			c-0.3,0.1-0.7,0.2-1.2,0.2c-0.2,0-0.5,0-0.8-0.1c-0.3-0.1-0.5-0.2-0.8-0.4c-0.2-0.2-0.5-0.5-0.6-0.8c-0.2-0.3-0.3-0.7-0.3-1.2
			c0-0.6,0-1,0.2-1.5c0.1-0.4,0.3-0.8,0.6-1c0.2-0.3,0.5-0.5,0.8-0.6c0.3-0.1,0.6-0.2,0.9-0.2c0.2,0,0.4,0,0.6,0s0.3,0,0.4,0.1
			l0.1-0.4L69.7,27.4z"/>
		<path class="st1" d="M73.4,30.4c0,0.2,0,0.4-0.1,0.6c-0.1,0.2-0.2,0.3-0.3,0.4l-0.6-0.5c0.1-0.1,0.2-0.2,0.1-0.3
			c0-0.1-0.2-0.2-0.3-0.2c-0.1,0-0.1,0-0.2,0c-0.1,0-0.2,0.1-0.2,0.1c-0.1,0-0.1,0.1-0.2,0.2c0,0.1-0.1,0.2-0.1,0.3l0,1.7l0.8,0
			l0,0.6l-2.2,0l0-0.8h0.5l0-2.4l-0.6,0l0-0.7h1.4l0,0.4c0.1-0.1,0.2-0.2,0.4-0.2c0.1,0,0.3-0.1,0.4-0.1c0.1,0,0.2,0,0.3,0
			c0.1,0,0.2,0.1,0.3,0.1c0.1,0.1,0.2,0.2,0.3,0.3C73.3,30.1,73.4,30.2,73.4,30.4z"/>
		<path class="st1" d="M77.6,31.3c0,0.3-0.1,0.5-0.1,0.8c-0.1,0.2-0.2,0.4-0.4,0.6c-0.2,0.2-0.3,0.3-0.6,0.4
			c-0.2,0.1-0.5,0.2-0.7,0.2c-0.3,0-0.5,0-0.7-0.1c-0.2-0.1-0.4-0.2-0.6-0.3c-0.2-0.1-0.3-0.3-0.4-0.6c-0.1-0.2-0.2-0.5-0.2-0.7
			c0-0.3,0-0.6,0.1-0.9c0.1-0.3,0.2-0.5,0.4-0.7c0.2-0.2,0.4-0.3,0.6-0.5c0.2-0.1,0.5-0.2,0.8-0.2c0.3,0,0.5,0,0.8,0.1
			c0.2,0.1,0.4,0.2,0.6,0.4c0.2,0.2,0.3,0.4,0.4,0.6C77.6,30.8,77.6,31.1,77.6,31.3z M76.7,31.4c0-0.1,0-0.3-0.1-0.4
			c-0.1-0.1-0.1-0.3-0.2-0.4c-0.1-0.1-0.2-0.2-0.3-0.3c-0.1-0.1-0.3-0.1-0.4-0.1c-0.1,0-0.3,0-0.4,0.1c-0.1,0.1-0.2,0.2-0.3,0.3
			c-0.1,0.1-0.2,0.3-0.2,0.4c0,0.2-0.1,0.3-0.1,0.5c0,0.3,0.1,0.5,0.3,0.7c0.2,0.2,0.4,0.3,0.7,0.3c0.1,0,0.3,0,0.4-0.1
			c0.1-0.1,0.2-0.1,0.3-0.3c0.1-0.1,0.2-0.2,0.2-0.4C76.7,31.7,76.7,31.5,76.7,31.4z"/>
		<path class="st1" d="M80.5,30.4l-0.7,0c0-0.2-0.1-0.3-0.1-0.4C79.6,30,79.5,30,79.4,30c-0.1,0-0.2,0-0.4,0.1
			c-0.1,0.1-0.2,0.2-0.2,0.4c0,0.2,0.1,0.3,0.3,0.4c0.2,0.1,0.3,0.2,0.5,0.4c0.2,0.1,0.4,0.3,0.5,0.4c0.2,0.2,0.2,0.4,0.2,0.7
			c0,0.3-0.1,0.5-0.3,0.7c-0.2,0.2-0.4,0.3-0.8,0.3c-0.2,0-0.4,0-0.6-0.1c-0.2-0.1-0.3-0.2-0.4-0.3c-0.1-0.1-0.2-0.3-0.2-0.5
			c0-0.2,0-0.4,0.1-0.6l0.7,0.3c-0.1,0.2-0.1,0.3,0,0.4c0.1,0.1,0.1,0.1,0.2,0.2c0.1,0,0.2,0,0.3-0.1c0.1-0.1,0.1-0.2,0.1-0.3
			c0-0.1-0.1-0.3-0.2-0.4c-0.2-0.1-0.3-0.2-0.5-0.4c-0.2-0.1-0.4-0.3-0.5-0.4c-0.2-0.2-0.3-0.4-0.3-0.6c0-0.3,0-0.6,0.2-0.8
			c0.1-0.2,0.3-0.3,0.5-0.4c0.2-0.1,0.4-0.1,0.6-0.1s0.4,0.1,0.5,0.2V29l0.7,0L80.5,30.4z"/>
		<path class="st1" d="M83.5,30.4l-0.7,0c0-0.2-0.1-0.3-0.1-0.4C82.5,30,82.4,30,82.3,30c-0.1,0-0.2,0-0.4,0.1
			c-0.1,0.1-0.2,0.2-0.2,0.4c0,0.2,0.1,0.3,0.3,0.4c0.2,0.1,0.3,0.2,0.5,0.4c0.2,0.1,0.4,0.3,0.5,0.4c0.2,0.2,0.2,0.4,0.2,0.7
			c0,0.3-0.1,0.5-0.3,0.7c-0.2,0.2-0.4,0.3-0.8,0.3c-0.2,0-0.4,0-0.6-0.1c-0.2-0.1-0.3-0.2-0.4-0.3c-0.1-0.1-0.2-0.3-0.2-0.5
			c0-0.2,0-0.4,0.1-0.6l0.7,0.3c-0.1,0.2-0.1,0.3,0,0.4c0.1,0.1,0.1,0.1,0.2,0.2c0.1,0,0.2,0,0.3-0.1c0.1-0.1,0.1-0.2,0.1-0.3
			c0-0.1-0.1-0.3-0.2-0.4c-0.2-0.1-0.3-0.2-0.5-0.4c-0.2-0.1-0.4-0.3-0.5-0.4c-0.2-0.2-0.3-0.4-0.3-0.6c0-0.3,0-0.6,0.2-0.8
			s0.3-0.3,0.5-0.4c0.2-0.1,0.4-0.1,0.6-0.1s0.4,0.1,0.5,0.2V29l0.7,0L83.5,30.4z"/>
		<path class="st1" d="M85.9,33.2h-2l0-0.8l0.6,0l0-2l-0.7,0l0-0.8l1.6,0l0,2.9l0.5,0V33.2z M85.4,28.5c0,0.2,0,0.3-0.2,0.5
			c-0.1,0.1-0.3,0.2-0.4,0.2c-0.2,0-0.3,0-0.5-0.1c-0.1-0.1-0.2-0.2-0.2-0.4c0-0.2,0.1-0.3,0.2-0.5c0.1-0.1,0.3-0.2,0.4-0.2
			c0.2,0,0.3,0.1,0.5,0.2C85.3,28.2,85.4,28.3,85.4,28.5z"/>
		<path class="st1" d="M90.5,33.3l-1.4,0c0-0.9,0-1.8,0-2.6c0-0.1,0-0.3-0.1-0.3c-0.1-0.1-0.2-0.1-0.4-0.2c-0.1,0-0.3,0-0.4,0.1
			c-0.1,0.1-0.3,0.2-0.4,0.4l0,2.6l-1.4,0v-0.6l0.5,0l0-2.8l-0.6,0l0-0.6l1.5,0v0.6c0.1-0.2,0.3-0.3,0.5-0.3
			c0.2-0.1,0.3-0.1,0.5-0.1c0.2,0,0.4,0,0.6,0.1c0.2,0.1,0.3,0.2,0.4,0.3c0.1,0.1,0.2,0.3,0.3,0.4c0.1,0.1,0.1,0.3,0.1,0.4
			c0,0.7,0,1.4,0,2l0.4,0V33.3z"/>
		<path class="st1" d="M95,30.2l-0.4,0l-0.1,3.9c0,0.3-0.1,0.5-0.1,0.7c-0.1,0.2-0.2,0.4-0.4,0.5c-0.1,0.1-0.3,0.2-0.5,0.3
			c-0.2,0.1-0.4,0.1-0.6,0.1c-0.2,0-0.3,0-0.5-0.1c-0.2-0.1-0.3-0.1-0.4-0.2c-0.1-0.1-0.2-0.2-0.3-0.4c-0.1-0.1-0.1-0.3-0.1-0.5
			c0-0.3,0.1-0.5,0.2-0.8c0.2-0.2,0.4-0.4,0.7-0.4c0.2,0,0.4,0,0.5,0.2c0.2,0.1,0.3,0.3,0.3,0.5l-0.6,0.3c-0.1-0.1-0.1-0.1-0.2-0.1
			c-0.1,0-0.1,0.1-0.1,0.2c0,0.1,0,0.1,0.1,0.2c0.1,0.1,0.2,0.1,0.4,0.1c0.1,0,0.3-0.1,0.4-0.2c0.1-0.1,0.2-0.3,0.2-0.5l0-1.1
			c-0.1,0.1-0.3,0.2-0.4,0.2c-0.1,0-0.3,0.1-0.6,0.1c-0.2,0-0.5-0.1-0.7-0.2c-0.2-0.1-0.4-0.2-0.5-0.4c-0.2-0.2-0.3-0.4-0.4-0.6
			c-0.1-0.2-0.1-0.5-0.1-0.7c0-0.3,0.1-0.5,0.1-0.7c0.1-0.2,0.2-0.4,0.4-0.6c0.2-0.2,0.3-0.3,0.5-0.4c0.2-0.1,0.4-0.1,0.7-0.1
			c0.4,0,0.8,0.1,1,0.3l0-0.5l1.4,0V30.2z M93.5,30.8c-0.1-0.1-0.2-0.2-0.3-0.3c-0.1-0.1-0.3-0.1-0.5-0.1c-0.3,0-0.5,0.1-0.7,0.3
			c-0.1,0.2-0.2,0.4-0.2,0.7c0,0.2,0.1,0.5,0.3,0.6c0.2,0.2,0.4,0.3,0.7,0.3c0.1,0,0.3,0,0.4-0.1c0.1-0.1,0.2-0.2,0.3-0.3L93.5,30.8
			z"/>
	</g>
</g>
</svg>
