<svg xmlns="http://www.w3.org/2000/svg" width="22" height="22" viewBox="0 0 22 22">
  <path id="palette" d="M20.722,14a1.833,1.833,0,1,1,1.833-1.833A1.833,1.833,0,0,1,20.722,14M17.056,9.111a1.833,1.833,0,1,1,1.833-1.833,1.833,1.833,0,0,1-1.833,1.833m-6.111,0a1.833,1.833,0,1,1,1.833-1.833,1.833,1.833,0,0,1-1.833,1.833M7.278,14a1.833,1.833,0,1,1,1.833-1.833A1.833,1.833,0,0,1,7.278,14M14,3a11,11,0,0,0,0,22,1.833,1.833,0,0,0,1.833-1.833,1.794,1.794,0,0,0-.477-1.222,1.893,1.893,0,0,1-.464-1.222,1.833,1.833,0,0,1,1.833-1.833h2.163A6.111,6.111,0,0,0,25,12.778C25,7.376,20.074,3,14,3Z" transform="translate(-3 -3)" fill="#afb6b6"/>
</svg>
